<svg id="Layer_1" data-name="Layer 1" xmlns="http://www.w3.org/2000/svg" viewBox="0 0 500 500"><defs><style>.cls-1{fill:#964b4b;}.cls-1,.cls-2,.cls-3,.cls-4{stroke:#000;stroke-miterlimit:10;}.cls-2{fill:#daaa70;}.cls-3{fill:#f0f1f4;}.cls-5{writing-mode:tb;text-orientation:upright;glyph-orientation-vertical:0deg;font-size:68.18px;}.cls-5,.cls-6{font-family:Anton-Regular, Anton;}.cls-6{font-size:81.57px;letter-spacing:0.16em;}</style></defs><title>LOGO SIMPLE copy 7</title><path d="M272.35,208.44c32.79-.59,58.37-26.93,63.76-58.3,3.28-19.07,1.3-39.6,1.3-58.85,0-26.83-8.88-52.84-32.22-68.31-14.46-9.57-30.12-9.92-46.61-9.92H133.67c-14.47,0-28.88-1-42.54,4.85C64.22,29.38,49.63,57.77,49.33,86c-.75,71.3,0,142.65,0,214,0,11.76-.54,23.62,2.1,35.19,6.81,29.82,31.8,53.83,63.2,54.32q52,.79,103.84.73c16,0,32.37.91,48.38-.12,31.73-2.06,58.6-26.26,63.13-57.76,2.69-18.67.77-38.59.77-57.38,0-7.56.31-15.18-.78-22.69a67.26,67.26,0,0,0-22.27-40.9,70,70,0,0,0-42-16.82v14.34a61.16,61.16,0,0,1,6.63-.44c9.26,0,9.27-14.34,0-14.34a61.16,61.16,0,0,0-6.63.44c-9.08,1-9.41,13.75,0,14.34,28.81,1.8,50.33,25.47,50.65,53.95.19,17.43,0,34.87,0,52.3,0,8.41-.12,16.49-2.84,24.62a53.68,53.68,0,0,1-27.25,30.77c-14.85,7.27-32.39,5.35-48.46,5.35-34.39,0-68.69-.73-103-.73-7.11,0-14.24.17-21.34,0-14-.38-26.56-7.21-35.51-17.77-11.38-13.42-14.23-30-14.23-46.89V98.82c0-12-.31-23.67,3.79-35.3C75,42.23,93.62,27.49,116.4,27.4c35.27-.13,70.54,0,105.8,0h45.47c20.39,0,37.42,9,47.53,27.19C325.49,73.16,323,95.24,323,115.68c0,22.15.63,44.37-15.46,62-9.2,10.11-21.46,16.14-35.21,16.39C263.11,194.27,263.08,208.61,272.35,208.44Z"/><path class="cls-1" d="M54.63,87.85v230c0,36,25.7,65.17,57.42,65.17h41.89c31.71,0,57.42-29.18,57.42-65.17V268c0-36,25.71-65.17,57.42-65.17h0c31.71,0,57.41-29.18,57.41-65.18V87.85c0-36-25.7-65.18-57.41-65.18H112.05C80.33,22.67,54.63,51.85,54.63,87.85Z"/><rect class="cls-2" x="108.58" y="203.23" width="211.04" height="180.9" rx="58.9" ry="58.9"/><rect class="cls-3" x="213.29" y="82.85" width="85.87" height="59.66" rx="29.18" ry="29.18"/><ellipse class="cls-4" cx="274.72" cy="115.15" rx="10.18" ry="11.74"/><path d="M255.78,303.74,230.42,292.9l-20.6,10.2L246.88,319C257.19,323.36,266.18,308.19,255.78,303.74Z"/><path d="M163.21,283.18,188.57,294l20.6-10.21L172.1,268C161.8,263.56,152.81,278.73,163.21,283.18Z"/><path class="cls-1" d="M203.62,184.14v49.91A17.66,17.66,0,0,1,186,251.67h0a17.67,17.67,0,0,1-17.62-17.62V184.14"/><path d="M255.78,303.74,230.42,292.9l-20.6,10.2L246.88,319C257.19,323.36,266.18,308.19,255.78,303.74Z"/><path d="M163.21,283.18,188.57,294l20.6-10.21L172.1,268C161.8,263.56,152.81,278.73,163.21,283.18Z"/><path d="M163.82,306.17,188.57,294l21.11,9.11L173.5,320.89C163.44,325.83,153.67,311.16,163.82,306.17Z"/><path d="M255.17,280.75l-24.75,12.16-21.11-9.1L245.49,266C255.55,261.09,265.32,275.76,255.17,280.75Z"/><text class="cls-5" transform="translate(388.76 31.56)">PASTA</text><text class="cls-6" transform="translate(63.92 470.11)">IN A BOX</text></svg>