<svg id="Layer_1" data-name="Layer 1" xmlns="http://www.w3.org/2000/svg" xmlns:xlink="http://www.w3.org/1999/xlink" viewBox="0 0 500 500"><defs><style>.cls-1,.cls-5{fill:none;}.cls-2{clip-path:url(#clip-path);}.cls-3{opacity:0.2;}.cls-4{clip-path:url(#clip-path-3);}.cls-5{stroke:#736258;stroke-linecap:round;stroke-linejoin:round;stroke-width:3px;}</style><clipPath id="clip-path"><rect class="cls-1" x="66.77" y="5.36" width="352.98" height="485.64"/></clipPath><clipPath id="clip-path-3"><rect class="cls-1" x="58.76" y="-1.4" width="369" height="495.45"/></clipPath></defs><title>logo_shadow2</title><g class="cls-2"><g class="cls-2"><g class="cls-3"><g class="cls-4"><path class="cls-5" d="M66.82,88.15V408.22c0,45.62,35.17,82.74,78.4,82.74H334c43.23,0,78.4-37.12,78.4-82.74V320.11c0-28.34-13.59-54.38-36.39-69.75,26.54-14,43.66-43,43.66-74.11V88.15c0-45.63-35.17-82.74-78.4-82.74H145.22C102,5.41,66.82,42.52,66.82,88.15Z"/><path class="cls-5" d="M67.08,88.15V408.22c0,45.36,35.17,82.47,78.14,82.47H334c43,0,78.14-37.11,78.14-82.47V320.11c0-29.3-14.68-55.14-36.65-69.78,25.94-13.45,43.91-41.65,43.91-74.08V88.15c0-45.36-35.16-82.48-78.13-82.48H145.22C102.25,5.67,67.08,42.79,67.08,88.15Z"/><path class="cls-5" d="M67.35,88.15V408.22c0,45.33,34.93,82.2,77.87,82.2H334c42.94,0,77.87-36.87,77.87-82.2V320.11c0-28.31-13.66-54.31-36.53-69.56a.26.26,0,0,1,0-.45c26.6-13.79,43.78-42.78,43.78-73.85V88.15c0-45.33-34.94-82.21-77.87-82.21H145.22C102.28,5.94,67.35,42.82,67.35,88.15Z"/><path class="cls-5" d="M332.05,247.05a60.85,60.85,0,0,1,8.18-.57,60.09,60.09,0,0,0,21.08-3.83C391,231.55,411,199,411,161.63V96.54c0-46.78-31.75-84.85-70.77-84.85H146.3c-31.83,0-59.91,25.7-68.27,62.49a101,101,0,0,0-2.51,22.36V397A101.09,101.09,0,0,0,77.34,416c7.42,38.74,35.77,65.8,69,65.8h51.84c1.51,0,3.11-.08,5-.24"/><path class="cls-5" d="M332.09,247.32a59.19,59.19,0,0,1,8.14-.58,60.26,60.26,0,0,0,21.17-3.84c28.89-10.79,49.87-43.1,49.87-81.27V96.54c0-47-31.81-85.11-71-85.11H146.3C113.54,11.43,86,38,77.77,74.12a100.82,100.82,0,0,0-2.51,22.42V397a101.25,101.25,0,0,0,1.82,19.1c7.23,37.8,35.47,66,69.22,66h51.84c1.7,0,3.38-.09,5.05-.23"/><path class="cls-5" d="M332.12,247.58a60,60,0,0,1,8.11-.57,60.61,60.61,0,0,0,21.26-3.86c29.94-11.18,50.05-43.94,50.05-81.52V96.54c0-47.08-32-85.38-71.31-85.38H146.3c-32.08,0-60.37,25.87-68.79,62.9A101.53,101.53,0,0,0,75,96.54V397a102.06,102.06,0,0,0,1.82,19.15c7.47,39,36.05,66.23,69.49,66.23h51.84c1.53,0,3.14-.08,5.07-.24"/><path class="cls-5" d="M332.1,247.05a71.06,71.06,0,0,1,30.22,8.4c25.32,13.54,41,40.52,41,70.43v78.49c0,43.51-33.54,78.92-74.78,78.92H216.07a72.19,72.19,0,0,1-12.93-1.2"/><path class="cls-5" d="M332.09,247.32a71,71,0,0,1,30.11,8.37c24.26,13,40.9,39.52,40.9,70.19v78.49c0,43.44-33.37,78.65-74.52,78.65H216.07a71,71,0,0,1-12.88-1.19"/><path class="cls-5" d="M332.07,247.58a70.55,70.55,0,0,1,30,8.34c25.14,13.45,40.76,40.25,40.76,70v78.49c0,43.22-33.31,78.39-74.25,78.39H216.07a71.29,71.29,0,0,1-12.84-1.2"/><path class="cls-5" d="M332.07,247.58c-1.15-.05-2.32-.09-3.49-.09h-68.7v40c0,12.83-9.9,23.27-22.07,23.27s-22.06-10.44-22.06-23.27v-40A71.26,71.26,0,0,0,178,258.56l-.26.16-.36.23c-22.28,14.38-35.58,39.4-35.58,66.93v78.49a83.17,83.17,0,0,0,1.43,15.34c5.92,31.48,30,56.34,60,61.85"/><path class="cls-5" d="M332.09,247.32c-1.17-.06-2.33-.1-3.51-.1h-69v40.26c0,12.65-9.81,23-21.79,23s-21.8-10.36-21.8-23V247.22a71.27,71.27,0,0,0-38.14,11.12c-.21.13-.42.25-.62.39-21.41,13.81-35.71,38.72-35.71,67.15v78.49A82.88,82.88,0,0,0,143,419.76c5.95,31.68,29.94,56.5,60.2,62.07"/><path class="cls-5" d="M332.1,247.05c-1.17-.06-2.34-.09-3.52-.09h-69a.27.27,0,0,0-.27.26v40.26c0,12.54-9.65,22.74-21.52,22.74s-21.53-10.2-21.53-22.74V247.22a.25.25,0,0,0-.08-.18A.27.27,0,0,0,216,247a71.8,71.8,0,0,0-38.28,11.15l-.26.16-.37.23c-22.43,14.48-35.82,39.67-35.82,67.38v78.49a83.47,83.47,0,0,0,1.44,15.44c6,31.69,30.23,56.72,60.41,62.28"/><path class="cls-5" d="M348,168.21c20.5,0,37.18-17.6,37.18-39.23S368.52,89.76,348,89.76H315.59c-20.5,0-37.17,17.6-37.17,39.22s16.67,39.23,37.17,39.23Z"/><path class="cls-5" d="M348,167.94c20.3,0,36.91-17.53,36.91-39S368.32,90,348,90H315.59c-20.3,0-36.91,17.54-36.91,39s16.61,39,36.91,39Z"/><path class="cls-5" d="M348,167.68c20.21,0,36.65-17.36,36.65-38.7S368.23,90.29,348,90.29H315.59C295.39,90.29,279,107.65,279,129s16.44,38.7,36.64,38.7Z"/><path class="cls-5" d="M350.71,132.2c0,8.6,5.77,15.6,12.86,15.6s12.87-7,12.87-15.6-5.77-15.6-12.87-15.6S350.71,123.6,350.71,132.2Z"/><ellipse class="cls-5" cx="363.57" cy="132.2" rx="12.6" ry="15.34"/><path class="cls-5" d="M351.24,132.2c0,8.31,5.54,15.07,12.33,15.07s12.33-6.76,12.33-15.07-5.53-15.07-12.33-15.07S351.24,123.89,351.24,132.2Z"/><path class="cls-5" d="M324.25,378.25,313,373.17l-19.58-8.84,19-9.86,11.11-5.76a9.34,9.34,0,0,0,5.44-8,13.19,13.19,0,0,0-6.19-11.17,11.08,11.08,0,0,0-11.47-.53l-42.23,21.9-2.53,1.32a.28.28,0,0,0-.15.24.31.31,0,0,0,.16.24l.84.38,1.69.77,6.12,2.79,17,7.71-20,10.46-3.08,1.61-1.9,1a.27.27,0,0,0-.15.24.31.31,0,0,0,.16.24l.94.42,1,.44,18.79,8.48L313,398.6a11.07,11.07,0,0,0,11.43-1.17,13.23,13.23,0,0,0,5.62-11.54A9.31,9.31,0,0,0,324.25,378.25Z"/><path class="cls-5" d="M324.14,378.5l-31.35-14.15,30.6-15.88c12.56-6.52.47-25.68-12-19.22l-42.23,21.9-2.53,1.32,2.53,1.15,23.57,10.73-23.57,12.32-1.9,1,1.9.86,44,19.84C325.89,404.12,337,384.3,324.14,378.5Z"/><path class="cls-5" d="M324,378.74l-11.27-5.09-20.08-9.06a.26.26,0,0,1-.16-.24.27.27,0,0,1,.14-.24L312.15,354l11.12-5.76c4.07-2.12,5.05-5.28,5.15-7.55a12.64,12.64,0,0,0-5.95-10.7,10.56,10.56,0,0,0-10.93-.51l-42.23,21.91-2.05,1.06.34.15,1.69.78,6.12,2.78,17.45,7.94a.31.31,0,0,1,.16.24.27.27,0,0,1-.15.24l-20.49,10.71-3.07,1.61-1.42.75.44.19,1,.44,18.8,8.48,25.16,11.36a10.58,10.58,0,0,0,10.9-1.12c3.63-2.61,5.8-7.05,5.4-11.05A8.63,8.63,0,0,0,324,378.74Z"/><path class="cls-5" d="M209.5,351.88l16.19,7.31,14.67,6.61-10.55,5.47-19.57,10.16c-6.13,3.17-6.45,9.26-4.05,13.87,2.82,5.45,9.49,9.34,16.27,5.82l26.39-13.69,18.37-9.53a.27.27,0,0,0,.15-.24.28.28,0,0,0-.16-.23l-12-5.46-13.61-6.2,16.56-8.66,8.42-4.4a.29.29,0,0,0,.15-.25.28.28,0,0,0-.16-.23L250.5,345l-29.78-13.44a11.09,11.09,0,0,0-11.43,1.17c-3.78,2.72-6,7.35-5.62,11.54A9.3,9.3,0,0,0,209.5,351.88Z"/><path class="cls-5" d="M209.61,351.64,241,365.79l-30.61,15.87c-12.56,6.52-.47,25.68,12,19.23l44.76-23.22L241,365.79l25.47-13.32-45.86-20.7C207.86,326,196.74,345.83,209.61,351.64Z"/><path class="cls-5" d="M241,365.5l.11.05a.25.25,0,0,1,.15.23.26.26,0,0,1-.14.24l-11,5.73L210.48,381.9c-5.8,3-6.1,8.78-3.82,13.16,2.71,5.22,9.08,8.95,15.56,5.59L248.6,387l17.89-9.28L255,372.45,240.89,366a.28.28,0,0,1-.16-.24.28.28,0,0,1,.15-.24Z"/></g></g></g></g></svg>
