<svg id="Layer_1" data-name="Layer 1" xmlns="http://www.w3.org/2000/svg" viewBox="0 0 500 500"><defs><style>.cls-1{fill:none;stroke:#c69b71;stroke-miterlimit:10;stroke-width:13px;}</style></defs><title>logo_simple copy</title><path class="cls-1" d="M74.93,374.73c0,14.7-.68,29.53,2.57,44,8.38,37.29,39.13,67.3,77.76,67.91q63.92,1,127.74.92c19.73,0,39.82,1.14,59.52-.16,39-2.57,72.09-32.82,77.66-72.2,3.31-23.33.95-48.23.95-71.72,0-9.45.38-19-1-28.37a83.31,83.31,0,0,0-41.77-61.33c25.78-11.58,44.4-37.22,49.32-66.33,4-23.84,1.49-49.61,1.49-73.67,0-33.54-10.81-65.95-39.53-85.28-17.78-12-37.06-12.4-57.33-12.4H178.68c-17.8,0-35.53-1.23-52.34,6.05C93.25,36.48,75.29,72,74.93,107.26,74,196.4,74.93,285.59,74.93,374.73Z"/><path class="cls-1" d="M341.26,253.85a64,64,0,0,1,8-.52h0c39.64,0,71.78-36.48,71.78-81.47v-62.3c0-45-32.14-81.47-71.78-81.47H153.33c-39.64,0-71.77,36.47-71.77,81.47V397.1c0,45,32.13,81.48,71.77,81.48H205.7c.85,0,1.68,0,2.51-.08"/><path class="cls-1" d="M341.26,253.85a73.62,73.62,0,0,1,71.56,73.58v78.86a73.63,73.63,0,0,1-73.64,73.63H222.63a73.76,73.76,0,0,1-14.42-1.42"/><path class="cls-1" d="M341.26,253.85c-.69,0-1.38-.06-2.08-.06H267.81v38.53a22.08,22.08,0,0,1-22,22h0a22.08,22.08,0,0,1-22-22V253.79h-1.14A73.63,73.63,0,0,0,149,327.43v78.86a73.64,73.64,0,0,0,59.21,72.21"/><rect class="cls-1" x="279.89" y="103.32" width="107.35" height="74.58" rx="36.47" ry="36.47"/><ellipse class="cls-1" cx="356.69" cy="143.69" rx="12.73" ry="14.68"/><path class="cls-1" d="M217.29,353.73,249,367.28l-30.92,15.19c-12.69,6.24-.48,24.59,12.1,18.4l45.22-22.22L249,367.28l25.74-12.75-46.33-19.81C215.52,329.21,204.29,348.17,217.29,353.73Z"/><path class="cls-1" d="M333,379.44,301.32,365.9l30.92-15.2c12.69-6.23.48-24.58-12.1-18.4l-45.22,22.23,26.37,11.37-25.74,12.75,46.34,19.81C334.77,404,346,385,333,379.44Z"/><text></text></svg>
