<svg id="Layer_1" data-name="Layer 1" xmlns="http://www.w3.org/2000/svg" viewBox="0 0 500 500"><defs><style>.cls-1{opacity:0.5;}.cls-2,.cls-3{fill:#5b5b5b;}.cls-13,.cls-3{font-size:35.29px;font-family:Apple-Chancery, Apple Chancery;}.cls-4{fill:#eb4740;}.cls-5{fill:#f5f5f5;}.cls-6{fill:#d93026;}.cls-7{fill:#bf2622;}.cls-10,.cls-8{fill:#6c3518;}.cls-8{stroke:#6c3518;}.cls-12,.cls-8{stroke-miterlimit:10;}.cls-9{fill:#7c4726;}.cls-11{fill:#ebecdc;}.cls-12{fill:none;stroke:#020200;}.cls-14{fill:#db6c6a;}</style></defs><title>meatballs</title><g class="cls-1"><path class="cls-2" d="M264.83,50h77.94A15.23,15.23,0,0,1,358,65.19v3a15.22,15.22,0,0,1-15.18,15.18H186.88A15.22,15.22,0,0,1,171.7,68.15v-3A15.23,15.23,0,0,1,186.88,50h77.95"/><rect class="cls-2" x="173.66" y="83.38" width="182.33" height="29.36" rx="7.49" ry="7.49"/><path class="cls-2" d="M265.08,448H232.41a87.17,87.17,0,0,1-86.92-86.92V182a87.18,87.18,0,0,1,86.92-86.92h65.35A87.18,87.18,0,0,1,384.68,182V361.08A87.17,87.17,0,0,1,297.76,448H265.08"/><path class="cls-2" d="M260.74,440.16H235.8c-44.28,0-80.51-38.92-80.51-86.5V175.48s58.82,5.88,74.5,5.88c7.72,0,24.48-1.43,41.13-2.17"/><path class="cls-2" d="M270.92,179.19c17.18-.77,34.25-.82,41.22,2.17,13.72,5.88,39.21,2,43.13,0s17.65-7.84,21.57-5.88V353.66c0,47.58-36.23,86.5-80.51,86.5H260.74"/><circle class="cls-2" cx="316.06" cy="171.56" r="45.09"/><circle class="cls-2" cx="312.74" cy="169.57" r="40.45"/><path class="cls-2" d="M313.62,148.76s1.58-9.67-11-4.69C302.62,144.07,311.69,140,313.62,148.76Z"/><path class="cls-2" d="M333.51,177.94s1.59-9.67-11-4.7C322.52,173.24,331.59,169.2,333.51,177.94Z"/><path class="cls-2" d="M295.05,171.31s1.58-9.67-11-4.7C284.05,166.61,293.13,162.57,295.05,171.31Z"/><path class="cls-2" d="M303,192.53s1.58-9.67-11-4.7C292,187.83,301.08,183.79,303,192.53Z"/><path class="cls-2" d="M313.62,168.66s1.58-9.67-11-4.7C302.62,164,311.69,159.92,313.62,168.66Z"/><circle class="cls-2" cx="225.87" cy="177.44" r="45.09"/><circle class="cls-2" cx="222.56" cy="175.45" r="40.45"/><path class="cls-2" d="M223.43,154.65s1.59-9.67-11-4.7C212.43,150,221.51,145.9,223.43,154.65Z"/><path class="cls-2" d="M243.32,183.82s1.59-9.67-11-4.69C232.33,179.13,241.4,175.08,243.32,183.82Z"/><path class="cls-2" d="M204.86,177.19s1.59-9.67-11-4.7C193.87,172.49,202.94,168.45,204.86,177.19Z"/><path class="cls-2" d="M212.82,198.41s1.58-9.67-11-4.7C201.82,193.71,210.9,189.67,212.82,198.41Z"/><path class="cls-2" d="M223.43,174.54s1.59-9.67-11-4.7C212.43,169.84,221.51,165.8,223.43,174.54Z"/><circle class="cls-2" cx="263.12" cy="153.91" r="45.09"/><circle class="cls-2" cx="259.81" cy="151.92" r="40.45"/><path class="cls-2" d="M260.68,131.12s1.59-9.67-11-4.7C249.69,126.42,258.76,122.38,260.68,131.12Z"/><path class="cls-2" d="M280.57,160.3s1.59-9.67-11-4.7C269.58,155.6,278.65,151.56,280.57,160.3Z"/><path class="cls-2" d="M242.11,153.67s1.59-9.67-11-4.7C231.12,149,240.19,144.92,242.11,153.67Z"/><path class="cls-2" d="M250.07,174.89s1.59-9.67-11-4.7C239.08,170.19,248.15,166.14,250.07,174.89Z"/><path class="cls-2" d="M260.68,151s1.59-9.67-11-4.7C249.69,146.31,258.76,142.27,260.68,151Z"/><rect class="cls-2" x="177.58" y="181.36" width="182.33" height="105.87"/><rect class="cls-2" x="181.01" y="184.3" width="175.47" height="99.99" rx="1.18" ry="1.18"/><text class="cls-3" transform="translate(196.12 241.95)">Meatballs</text><path class="cls-2" d="M171,361.73s-2.22,51.42,53.26,66.42S166.55,396,171,361.73Z"/></g><path class="cls-4" d="M248.83,44h77.94A15.23,15.23,0,0,1,342,59.19v3a15.22,15.22,0,0,1-15.18,15.18H170.88A15.22,15.22,0,0,1,155.7,62.15v-3A15.23,15.23,0,0,1,170.88,44h78"/><rect class="cls-5" x="157.66" y="77.38" width="182.33" height="29.36" rx="7.49" ry="7.49"/><path class="cls-5" d="M249.08,442H216.41a87.17,87.17,0,0,1-86.92-86.92V176a87.18,87.18,0,0,1,86.92-86.92h65.35A87.18,87.18,0,0,1,368.68,176V355.08A87.17,87.17,0,0,1,281.76,442H249.08"/><path class="cls-6" d="M244.74,434.16H219.8c-44.28,0-80.51-38.92-80.51-86.5V169.48s58.82,5.88,74.5,5.88c7.72,0,24.48-1.43,41.13-2.17"/><path class="cls-7" d="M254.92,173.19c17.18-.77,34.25-.82,41.22,2.17,13.72,5.88,39.21,2,43.13,0s17.65-7.84,21.57-5.88V347.66c0,47.58-36.23,86.5-80.51,86.5H244.74"/><circle class="cls-8" cx="300.06" cy="165.56" r="45.09"/><circle class="cls-9" cx="296.74" cy="163.57" r="40.45"/><path class="cls-10" d="M297.62,142.76s1.58-9.67-11-4.69C286.62,138.07,295.69,134,297.62,142.76Z"/><path class="cls-10" d="M317.51,171.94s1.59-9.67-11-4.7C306.52,167.24,315.59,163.2,317.51,171.94Z"/><path class="cls-10" d="M279.05,165.31s1.58-9.67-11-4.7C268.05,160.61,277.13,156.57,279.05,165.31Z"/><path class="cls-10" d="M287,186.53s1.58-9.67-11-4.7C276,181.83,285.08,177.79,287,186.53Z"/><path class="cls-10" d="M297.62,162.66s1.58-9.67-11-4.7C286.62,158,295.69,153.92,297.62,162.66Z"/><circle class="cls-8" cx="209.87" cy="171.44" r="45.09"/><circle class="cls-9" cx="206.56" cy="169.45" r="40.45"/><path class="cls-10" d="M207.43,148.65s1.59-9.67-11-4.7C196.43,144,205.51,139.9,207.43,148.65Z"/><path class="cls-10" d="M227.32,177.82s1.59-9.67-11-4.69C216.33,173.13,225.4,169.08,227.32,177.82Z"/><path class="cls-10" d="M188.86,171.19s1.59-9.67-11-4.7C177.87,166.49,186.94,162.45,188.86,171.19Z"/><path class="cls-10" d="M196.82,192.41s1.58-9.67-11-4.7C185.82,187.71,194.9,183.67,196.82,192.41Z"/><path class="cls-10" d="M207.43,168.54s1.59-9.67-11-4.7C196.43,163.84,205.51,159.8,207.43,168.54Z"/><circle class="cls-8" cx="247.12" cy="147.91" r="45.09"/><circle class="cls-9" cx="243.81" cy="145.92" r="40.45"/><path class="cls-10" d="M244.68,125.12s1.59-9.67-11-4.7C233.69,120.42,242.76,116.38,244.68,125.12Z"/><path class="cls-10" d="M264.57,154.3s1.59-9.67-11-4.7C253.58,149.6,262.65,145.56,264.57,154.3Z"/><path class="cls-10" d="M226.11,147.67s1.59-9.67-11-4.7C215.12,143,224.19,138.92,226.11,147.67Z"/><path class="cls-10" d="M234.07,168.89s1.59-9.67-11-4.7C223.08,164.19,232.15,160.14,234.07,168.89Z"/><path class="cls-10" d="M244.68,145s1.59-9.67-11-4.7C233.69,140.31,242.76,136.27,244.68,145Z"/><rect class="cls-11" x="161.58" y="175.36" width="182.33" height="105.87"/><rect class="cls-12" x="165.01" y="178.3" width="175.47" height="99.99" rx="1.18" ry="1.18"/><text class="cls-13" transform="translate(180.12 235.95)">Meatballs</text><path class="cls-14" d="M155,355.73s-2.22,51.42,53.26,66.42S150.55,390,155,355.73Z"/></svg>
