<svg id="Layer_1" data-name="Layer 1" xmlns="http://www.w3.org/2000/svg" viewBox="0 0 500 500"><defs><style>.cls-1{opacity:0.5;}.cls-2{fill:#5b5b5b;}.cls-3{fill:#ffdb7a;}.cls-4{fill:#febb3b;}.cls-5{fill:#fca235;}.cls-6{fill:#febe3e;}.cls-7{fill:#ffd361;}</style></defs><title>penne</title><g class="cls-1"><path class="cls-2" d="M259.37,164.71l54.85-59.11s72-49.68,177.15-20c0,0,15-2.24-38.22,55.13L201.49,411.91S143,464.44,29.3,430.1c0,0-13.42.79,9.06-27.19C59.2,377,259.37,164.71,259.37,164.71Z"/><path class="cls-2" d="M473.89,95.35s-116.64-24.1-149.72,26C324.17,121.37,457.13,155.45,473.89,95.35Z"/><path class="cls-2" d="M326.58,121.92S437.94,101.23,461,115.16c0,0-6.86,10-31,14.32C408.67,133.35,373.12,132.47,326.58,121.92Z"/><path class="cls-2" d="M439.93,146.21s-21.72,2.49-23.46.88S160.14,433.35,156.08,434.46s34.92-11.65,41.75-19.68S439.93,146.21,439.93,146.21Z"/><path class="cls-2" d="M400.13,151.65s-22.15,2.3-23.85.64S103.81,440.5,99.64,441.58,132,439.68,142,436C149.24,427.87,400.13,151.65,400.13,151.65Z"/><path class="cls-2" d="M360.7,147.51s-24.18.38-26.2-1.6S60.5,435.91,56,436.7s33.37,7.44,40.64-.73S360.7,147.51,360.7,147.51Z"/><path class="cls-2" d="M322.24,140.54l-13.91-12.9s-.5-13.41,3.47-19.43S32.33,399.72,25.39,426.86Z"/></g><path class="cls-3" d="M250.37,156.71,305.22,97.6s72-49.68,177.15-20c0,0,15-2.24-38.22,55.13L192.49,403.91S134,456.44,20.3,422.1c0,0-13.42.79,9.06-27.19C50.2,369,250.37,156.71,250.37,156.71Z"/><path class="cls-4" d="M464.89,87.35s-116.64-24.1-149.72,26C315.17,113.37,448.13,147.45,464.89,87.35Z"/><path class="cls-5" d="M317.58,113.92S428.94,93.23,452,107.16c0,0-6.86,10-31,14.32C399.67,125.35,364.12,124.47,317.58,113.92Z"/><path class="cls-6" d="M430.93,138.21s-21.72,2.49-23.46.88S151.14,425.35,147.08,426.46s34.92-11.65,41.75-19.68S430.93,138.21,430.93,138.21Z"/><path class="cls-6" d="M391.13,143.65s-22.15,2.3-23.85.64S94.81,432.5,90.64,433.58,123,431.68,133,428C140.24,419.87,391.13,143.65,391.13,143.65Z"/><path class="cls-7" d="M351.7,139.51s-24.18.38-26.2-1.6S51.5,427.91,47,428.7s33.37,7.44,40.64-.73S351.7,139.51,351.7,139.51Z"/><path class="cls-7" d="M313.24,132.54l-13.91-12.9s-.5-13.41,3.47-19.43S23.33,391.72,16.39,418.86Z"/></svg>
