<svg id="Layer_1" data-name="Layer 1" xmlns="http://www.w3.org/2000/svg" viewBox="0 0 500 500"><defs><style>.cls-1{fill:#5b5b5b;opacity:0.5;}.cls-2{fill:#7e894d;}.cls-3{fill:#fdc15d;}.cls-4{fill:#fdaf2d;}.cls-5{fill:#fbd897;}.cls-6{fill:#736258;}.cls-7{fill:#ffdb7a;}.cls-8{fill:#febb3b;}.cls-9{fill:#fca235;}.cls-10{fill:#febe3e;}.cls-11{fill:#ffd361;}.cls-12{fill:#e59033;}.cls-13{fill:#dac9ad;}.cls-14{fill:#d5ba9b;}.cls-15{fill:#f7e8c6;}.cls-16{fill:#8d683b;}.cls-17{fill:#daaa70;}.cls-18{fill:#f0cfb0;}</style></defs><title>pox</title><ellipse class="cls-1" cx="249.5" cy="421" rx="184.5" ry="43"/><polygon class="cls-2" points="81.74 192.69 45.91 117.44 85.33 79.81 198.2 79.81 262.7 122.81 273.45 208.81 87.23 208.81 81.74 192.69"/><path class="cls-3" d="M187.87,270.74,166.5,194.06,132.41,71.74,124.54,43.5a.75.75,0,0,0-1.45.4l21.37,76.68,34.1,122.32,7.87,28.24a.75.75,0,0,0,1.44-.4Z"/><path class="cls-4" d="M201.42,255.67l-33.76-70.29-53.31-111L102,48.66c-.42-.87-1.71-.11-1.3.75l33.76,70.29,53.32,111,12.34,25.71c.42.87,1.72.11,1.3-.76Z"/><path class="cls-3" d="M206.14,267.07l-28.88-72.9L131.44,78.52,120.9,51.9c-.35-.89-1.8-.5-1.45.39l28.88,72.91,45.81,115.65,10.55,26.62c.35.89,1.8.5,1.45-.4Z"/><path class="cls-3" d="M158.46,295.13l4.34-89.37,6.91-142.32,1.57-32.51c.05-1-1.45-1-1.5,0l-4.33,89.38-6.91,142.32L157,295.13c-.05,1,1.45,1,1.5,0Z"/><path class="cls-3" d="M270.25,203.54l-75.91-37.72L73.28,105.65,45.38,91.78c-.86-.43-1.62.87-.76,1.3l75.91,37.72L241.59,191l27.9,13.87c.86.43,1.63-.87.76-1.3Z"/><path class="cls-3" d="M230.68,236.38,183.8,177.54,109.41,84.2,92.25,62.66c-.6-.75-1.65.31-1.06,1.06l46.89,58.84,74.38,93.34,17.16,21.54c.6.75,1.66-.31,1.06-1.06Z"/><path class="cls-4" d="M241,222.11l-57.85-51.05L90.54,89.32,69.36,70.63c-.72-.64-1.79.42-1.06,1.06l57.85,51.05,92.62,81.74L240,223.17c.72.64,1.79-.42,1.06-1.06Z"/><path class="cls-5" d="M262.68,217.82,195.94,172.7,90,101.1,65.64,84.61c-.8-.54-1.55.76-.76,1.3L131.63,131l105.9,71.59,24.4,16.49c.8.54,1.55-.75.75-1.29Z"/><path class="cls-4" d="M219.09,246.58,184.8,180.25,130.14,74.49,117.58,50.18c-.44-.85-1.74-.1-1.3.76l34.29,66.33L205.23,223l12.56,24.31c.44.86,1.74.1,1.3-.76Z"/><path class="cls-3" d="M189.21,278.78l-21.92-80.54-35-128.51L124.24,40a.75.75,0,0,0-1.44.4L144.71,121l35,128.51,8.08,29.69a.75.75,0,0,0,1.45-.4Z"/><path class="cls-3" d="M138.8,307.28l12.8-97.18L172,55.1l4.71-35.72c.13-1-1.38-.95-1.5,0l-12.8,97.17L142,271.55l-4.7,35.73c-.13,1,1.37,1,1.5,0Z"/><path class="cls-4" d="M156.19,292.18l-.15-91.8-.24-146.1-.05-33.22a.75.75,0,0,0-1.5,0l.15,91.8.24,146.1.05,33.22a.75.75,0,0,0,1.5,0Z"/><path class="cls-3" d="M155.59,306.72l5-93.84,7.93-149.67,1.82-34.46c.05-1-1.45-1-1.5,0l-5,93.84-7.93,149.66-1.82,34.47c-.05,1,1.45,1,1.5,0Z"/><path class="cls-3" d="M104.38,330.47,144,223l62.65-170,14.37-39c.34-.9-1.11-1.29-1.44-.39L180,121.09l-62.65,170-14.37,39c-.34.91,1.11,1.3,1.44.4Z"/><path class="cls-4" d="M123.6,316.37l26.77-102.88L193,49.78l9.69-37.23a.75.75,0,0,0-1.45-.4L174.45,115,131.84,278.73,122.15,316a.75.75,0,0,0,1.45.4Z"/><path class="cls-3" d="M234.71,243.65l-48.5-61.59-77.42-98.3L90.87,61c-.59-.76-1.65.31-1.06,1.06l48.51,61.59L215.73,222l17.92,22.75c.6.76,1.65-.31,1.06-1.06Z"/><path class="cls-3" d="M188.48,275.09l-15.75-81-25-128.55L142,35.92c-.18-1-1.63-.55-1.44.4l15.75,81,25,128.55L187,275.49c.18.94,1.63.54,1.45-.4Z"/><path class="cls-5" d="M222.76,259.44l-37.91-68.66L124.71,81.87,110.86,56.79c-.47-.84-1.76-.09-1.3.76l37.92,68.66,60.14,108.92,13.85,25.07c.46.84,1.76.09,1.29-.76Z"/><path class="cls-4" d="M174.65,285l-2.18-87.64L169,58.21l-.79-32a.75.75,0,0,0-1.5,0l2.18,87.64,3.46,139.09.8,32a.75.75,0,0,0,1.5,0Z"/><path class="cls-3" d="M158,299.49l10.39-93.12,16.55-148.2,3.76-33.72c.11-1-1.39-1-1.5,0l-10.39,93.11-16.55,148.2-3.76,33.73c-.11.95,1.39.95,1.5,0Z"/><polygon class="cls-2" points="415 185.52 454.42 269.73 434.71 303.77 398.87 303.77 345.12 303.77 415 185.52"/><polygon class="cls-6" points="216.12 192.69 198.2 278.69 140.87 316.31 101.72 316.31 87.12 192.69 216.12 192.69"/><path class="cls-4" d="M95.73,258.21a253.3,253.3,0,0,1,6.8-26.59c5.75-18.93,13.1-37.54,23.07-54.67,10.42-17.9,24.34-35.24,43.52-44.15,22.61-10.51,47.48-4.83,68.42,6.89,16.74,9.37,31.5,22,45,35.49,19.33,19.27,36.41,40.75,52.32,62.89,4.86,6.76,9.59,13.6,14.25,20.5,1.08,1.59,3.68.09,2.59-1.52-16.74-24.79-34.59-49-54.76-71.12-14.17-15.56-29.59-30.32-47.08-42.13-21.15-14.28-47.33-24.63-72.91-17.15-20.57,6-36.35,21.95-48,39.29S108.72,203.08,102.11,223q-3.66,11-6.52,22.31c-.91,3.61-2.49,7.77-2.65,11.53a3.41,3.41,0,0,1-.1.54c-.36,1.89,2.53,2.7,2.89.8Z"/><path class="cls-4" d="M95.73,259.94a253.3,253.3,0,0,1,6.8-26.59c5.75-18.93,13.1-37.54,23.07-54.67,10.42-17.9,24.34-35.24,43.52-44.15,22.61-10.51,47.48-4.83,68.42,6.89,16.74,9.37,31.5,22,45,35.49,19.33,19.27,36.41,40.75,52.32,62.89,4.86,6.76,9.59,13.6,14.25,20.5,1.08,1.59,3.68.09,2.59-1.52C335,234,317.15,209.81,297,187.66c-14.17-15.56-29.59-30.32-47.08-42.13-21.15-14.28-47.33-24.64-72.91-17.15-20.57,6-36.35,22-48,39.29s-20.23,37.14-26.84,57.09q-3.66,11-6.52,22.31c-.91,3.61-2.49,7.77-2.65,11.53a3.64,3.64,0,0,1-.1.54c-.36,1.89,2.53,2.7,2.89.8Z"/><path class="cls-4" d="M95.73,261.67a253.3,253.3,0,0,1,6.8-26.59c5.75-18.93,13.1-37.54,23.07-54.67,10.42-17.9,24.34-35.24,43.52-44.15,22.61-10.51,47.48-4.83,68.42,6.89,16.74,9.37,31.5,22,45,35.49,19.33,19.27,36.41,40.75,52.32,62.89,4.86,6.76,9.59,13.6,14.25,20.5,1.08,1.59,3.68.09,2.59-1.52-16.74-24.79-34.59-49-54.76-71.12-14.17-15.56-29.59-30.32-47.08-42.13C228.75,133,202.57,122.62,177,130.11c-20.57,6-36.35,21.95-48,39.29s-20.23,37.14-26.84,57.08q-3.66,11-6.52,22.32c-.91,3.61-2.49,7.77-2.65,11.52a3.53,3.53,0,0,1-.1.55c-.36,1.89,2.53,2.7,2.89.8Z"/><path class="cls-4" d="M95.73,263.4a253.3,253.3,0,0,1,6.8-26.59c5.75-18.93,13.1-37.54,23.07-54.67C136,164.24,149.94,146.9,169.12,138c22.61-10.51,47.48-4.84,68.42,6.89,16.74,9.37,31.5,22,45,35.49,19.33,19.27,36.41,40.75,52.32,62.89,4.86,6.76,9.59,13.6,14.25,20.5,1.08,1.59,3.68.09,2.59-1.52-16.74-24.79-34.59-49-54.76-71.12C282.81,175.56,267.39,160.8,249.9,149c-21.15-14.28-47.33-24.64-72.91-17.15-20.57,6-36.35,21.95-48,39.29s-20.23,37.14-26.84,57.08q-3.66,11-6.52,22.32c-.91,3.61-2.49,7.77-2.65,11.52a3.53,3.53,0,0,1-.1.55c-.36,1.89,2.53,2.7,2.89.8Z"/><path class="cls-5" d="M99.22,265.13A250.81,250.81,0,0,1,106,238.54c5.75-18.93,13.1-37.54,23.07-54.67,10.43-17.9,24.35-35.24,43.53-44.15,22.61-10.51,47.47-4.84,68.42,6.89,16.73,9.37,31.5,22,45,35.49,19.33,19.27,36.42,40.74,52.33,62.89q7.28,10.14,14.25,20.5c1.07,1.59,3.67.09,2.59-1.52-16.75-24.79-34.6-49-54.76-71.12-14.18-15.56-29.59-30.32-47.09-42.13-21.15-14.28-47.32-24.64-72.91-17.15-20.56,6-36.35,22-48,39.29S112.21,210,105.6,229.94q-3.66,11-6.52,22.31c-.92,3.62-2.49,7.78-2.65,11.53a3.57,3.57,0,0,1-.11.55c-.35,1.89,2.54,2.7,2.9.8Z"/><path class="cls-5" d="M99.22,266.86A250.81,250.81,0,0,1,106,240.27c5.75-18.93,13.1-37.54,23.07-54.67,10.43-17.9,24.35-35.24,43.53-44.15,22.61-10.51,47.47-4.84,68.42,6.89,16.73,9.37,31.5,22,45,35.49,19.33,19.27,36.42,40.74,52.33,62.89q7.28,10.14,14.25,20.5c1.07,1.59,3.67.09,2.59-1.52-16.75-24.79-34.6-49-54.76-71.12-14.18-15.56-29.59-30.32-47.09-42.13-21.15-14.28-47.32-24.64-72.91-17.15-20.56,6-36.35,21.95-48,39.29s-20.23,37.14-26.84,57.08q-3.66,11-6.52,22.31c-.92,3.62-2.49,7.78-2.65,11.53a3.57,3.57,0,0,1-.11.55c-.35,1.89,2.54,2.7,2.9.8Z"/><path class="cls-5" d="M99.22,268.59A250.81,250.81,0,0,1,106,242c5.75-18.93,13.1-37.54,23.07-54.67,10.43-17.9,24.35-35.24,43.53-44.15,22.61-10.51,47.47-4.84,68.42,6.89,16.73,9.37,31.5,22,45,35.49,19.33,19.27,36.42,40.74,52.33,62.89q7.28,10.14,14.25,20.49c1.07,1.6,3.67.1,2.59-1.51-16.75-24.79-34.6-49-54.76-71.12-14.18-15.56-29.59-30.32-47.09-42.13-21.15-14.28-47.32-24.64-72.91-17.15-20.56,6-36.35,21.95-48,39.29s-20.23,37.14-26.84,57.08q-3.66,11-6.52,22.31c-.92,3.62-2.49,7.78-2.65,11.53a3.57,3.57,0,0,1-.11.55c-.35,1.89,2.54,2.69,2.9.8Z"/><path class="cls-5" d="M99.22,270.32A250.81,250.81,0,0,1,106,243.73c5.75-18.93,13.1-37.54,23.07-54.67,10.43-17.9,24.35-35.24,43.53-44.15,22.61-10.51,47.47-4.84,68.42,6.89,16.73,9.37,31.5,22,45,35.49,19.33,19.27,36.42,40.74,52.33,62.89,4.85,6.75,9.59,13.6,14.25,20.49,1.07,1.6,3.67.1,2.59-1.51-16.75-24.79-34.6-49-54.76-71.12-14.18-15.56-29.59-30.32-47.09-42.13-21.15-14.28-47.32-24.64-72.91-17.15-20.56,6-36.35,22-48,39.29s-20.23,37.14-26.84,57.08q-3.66,11-6.52,22.31c-.92,3.61-2.49,7.78-2.65,11.53a3.57,3.57,0,0,1-.11.55c-.35,1.89,2.54,2.69,2.9.8Z"/><path class="cls-3" d="M99.22,275.5A251.25,251.25,0,0,1,106,248.92c5.75-18.94,13.1-37.54,23.07-54.67,10.43-17.9,24.35-35.24,43.53-44.16,22.61-10.51,47.47-4.83,68.42,6.9,16.73,9.36,31.5,22,45,35.48,19.33,19.28,36.42,40.75,52.33,62.89q7.28,10.14,14.25,20.5c1.07,1.59,3.67.09,2.59-1.51-16.75-24.79-34.6-49-54.76-71.12-14.18-15.56-29.59-30.32-47.09-42.13-21.15-14.28-47.32-24.64-72.91-17.15-20.56,6-36.35,22-48,39.29s-20.23,37.14-26.84,57.08q-3.66,11-6.52,22.31c-.92,3.61-2.49,7.78-2.65,11.53a3.57,3.57,0,0,1-.11.55c-.35,1.88,2.54,2.69,2.9.79Z"/><path class="cls-4" d="M98.49,276.13a253.3,253.3,0,0,1,6.8-26.59c5.75-18.93,13.1-37.54,23.07-54.67,10.42-17.9,24.34-35.24,43.52-44.15,22.62-10.51,47.48-4.84,68.43,6.89,16.73,9.37,31.5,22,45,35.49,19.33,19.27,36.42,40.74,52.32,62.89q7.29,10.14,14.25,20.49c1.08,1.6,3.68.1,2.59-1.51-16.74-24.79-34.59-49-54.75-71.12-14.18-15.56-29.6-30.32-47.09-42.13-21.15-14.28-47.33-24.64-72.91-17.15-20.57,6-36.35,22-48,39.29S111.48,221,104.87,240.94q-3.65,11-6.51,22.31c-.92,3.61-2.49,7.78-2.65,11.53a5.35,5.35,0,0,1-.11.55c-.35,1.89,2.54,2.69,2.89.8Z"/><path class="cls-4" d="M98.49,277.86a253.3,253.3,0,0,1,6.8-26.59c5.75-18.93,13.1-37.54,23.07-54.67,10.42-17.9,24.34-35.24,43.52-44.16,22.62-10.51,47.48-4.83,68.43,6.9,16.73,9.37,31.5,22,45,35.49,19.33,19.27,36.42,40.74,52.32,62.89,4.86,6.75,9.6,13.6,14.25,20.49,1.08,1.6,3.68.1,2.59-1.51-16.74-24.79-34.59-49-54.75-71.12-14.18-15.56-29.6-30.32-47.09-42.13-21.15-14.28-47.33-24.64-72.91-17.15-20.57,6-36.35,21.95-48,39.29s-20.23,37.14-26.84,57.08q-3.65,11-6.51,22.31c-.92,3.61-2.49,7.78-2.65,11.53a5.35,5.35,0,0,1-.11.55c-.35,1.89,2.54,2.69,2.89.8Z"/><path class="cls-4" d="M98.49,279.59a253.3,253.3,0,0,1,6.8-26.59c5.75-18.93,13.1-37.54,23.07-54.67,10.42-17.9,24.34-35.24,43.52-44.16,22.62-10.51,47.48-4.83,68.43,6.9,16.73,9.36,31.5,22,45,35.49,19.33,19.27,36.42,40.74,52.32,62.89,4.86,6.75,9.6,13.6,14.25,20.49,1.08,1.6,3.68.1,2.59-1.51-16.74-24.79-34.59-49-54.75-71.12-14.18-15.56-29.6-30.32-47.09-42.13-21.15-14.28-47.33-24.64-72.91-17.15-20.57,6-36.35,21.95-48,39.29s-20.23,37.14-26.84,57.08q-3.65,11-6.51,22.31c-.92,3.61-2.49,7.78-2.65,11.53a5.35,5.35,0,0,1-.11.55c-.35,1.89,2.54,2.69,2.89.8Z"/><path class="cls-4" d="M98.49,281.32a253.3,253.3,0,0,1,6.8-26.59c5.75-18.93,13.1-37.54,23.07-54.67,10.42-17.9,24.34-35.24,43.52-44.16,22.62-10.51,47.48-4.83,68.43,6.9,16.73,9.36,31.5,22,45,35.48,19.33,19.28,36.42,40.75,52.32,62.89q7.29,10.14,14.25,20.5c1.08,1.59,3.68.1,2.59-1.51-16.74-24.79-34.59-49-54.75-71.12-14.18-15.56-29.6-30.32-47.09-42.13-21.15-14.28-47.33-24.64-72.91-17.15-20.57,6-36.35,22-48,39.29s-20.23,37.14-26.84,57.08q-3.65,11-6.51,22.31c-.92,3.61-2.49,7.78-2.65,11.53a5.35,5.35,0,0,1-.11.55c-.35,1.88,2.54,2.69,2.89.8Z"/><path class="cls-5" d="M102,283a253.75,253.75,0,0,1,6.8-26.58c5.74-18.94,13.1-37.54,23.07-54.67,10.42-17.9,24.34-35.24,43.52-44.16,22.61-10.51,47.48-4.83,68.42,6.9,16.73,9.36,31.5,22,45,35.48,19.34,19.28,36.42,40.75,52.33,62.89,4.86,6.76,9.59,13.61,14.25,20.5,1.07,1.59,3.67.09,2.59-1.51-16.74-24.8-34.59-49-54.76-71.12-14.17-15.56-29.59-30.32-47.09-42.13C235,154.36,208.82,144,183.24,151.49c-20.57,6-36.35,21.95-48,39.29S115,227.92,108.36,247.86q-3.66,11-6.52,22.31c-.91,3.61-2.49,7.78-2.65,11.53a5.3,5.3,0,0,1-.1.55c-.36,1.88,2.53,2.69,2.89.79Z"/><path class="cls-5" d="M102,284.77a253.75,253.75,0,0,1,6.8-26.58c5.74-18.94,13.1-37.54,23.07-54.67,10.42-17.9,24.34-35.24,43.52-44.16,22.61-10.51,47.48-4.83,68.42,6.9,16.73,9.36,31.5,22,45,35.48,19.34,19.28,36.42,40.75,52.33,62.89,4.86,6.76,9.59,13.61,14.25,20.5,1.07,1.59,3.67.09,2.59-1.51-16.74-24.8-34.59-49-54.76-71.12-14.17-15.56-29.59-30.32-47.09-42.13-21.14-14.28-47.32-24.64-72.9-17.15-20.57,6-36.35,21.95-48,39.29S115,229.65,108.36,249.59q-3.66,11-6.52,22.31c-.91,3.61-2.49,7.78-2.65,11.53a5.3,5.3,0,0,1-.1.55c-.36,1.88,2.53,2.69,2.89.79Z"/><path class="cls-5" d="M102,286.5a253.75,253.75,0,0,1,6.8-26.58c5.74-18.94,13.1-37.54,23.07-54.67,10.42-17.9,24.34-35.24,43.52-44.16,22.61-10.51,47.48-4.83,68.42,6.9,16.73,9.36,31.5,22,45,35.48,19.34,19.28,36.42,40.75,52.33,62.89,4.86,6.76,9.59,13.61,14.25,20.5,1.07,1.59,3.67.09,2.59-1.51-16.74-24.8-34.59-49-54.76-71.12-14.17-15.57-29.59-30.32-47.09-42.13C235,157.82,208.82,147.46,183.24,155c-20.57,6-36.35,22-48,39.29S115,231.38,108.36,251.32q-3.66,11-6.52,22.31c-.91,3.61-2.49,7.78-2.65,11.53a5.3,5.3,0,0,1-.1.55c-.36,1.88,2.53,2.69,2.89.79Z"/><path class="cls-5" d="M102,288.23a253.75,253.75,0,0,1,6.8-26.58c5.74-18.94,13.1-37.54,23.07-54.67,10.42-17.9,24.34-35.24,43.52-44.16,22.61-10.51,47.48-4.83,68.42,6.9,16.73,9.36,31.5,22,45,35.48,19.34,19.28,36.42,40.75,52.33,62.89,4.86,6.76,9.59,13.6,14.25,20.5,1.07,1.59,3.67.09,2.59-1.51-16.74-24.8-34.59-49-54.76-71.12-14.17-15.57-29.59-30.32-47.09-42.13-21.14-14.28-47.32-24.64-72.9-17.16-20.57,6-36.35,22-48,39.3S115,233.1,108.36,253.05q-3.66,11-6.52,22.31c-.91,3.61-2.49,7.78-2.65,11.53a5.3,5.3,0,0,1-.1.55c-.36,1.88,2.53,2.69,2.89.79Z"/><path class="cls-3" d="M102,293.42a253.93,253.93,0,0,1,6.8-26.59c5.74-18.93,13.1-37.54,23.07-54.66,10.42-17.91,24.34-35.24,43.52-44.16,22.61-10.51,47.48-4.83,68.42,6.89,16.73,9.37,31.5,22,45,35.49,19.34,19.27,36.42,40.75,52.33,62.89,4.86,6.76,9.59,13.6,14.25,20.5,1.07,1.59,3.67.09,2.59-1.51-16.74-24.8-34.59-49-54.76-71.12-14.17-15.57-29.59-30.33-47.09-42.14-21.14-14.27-47.32-24.63-72.9-17.15-20.57,6-36.35,22-48,39.29S115,238.29,108.36,258.24q-3.66,11-6.52,22.31c-.91,3.61-2.49,7.78-2.65,11.53a4.68,4.68,0,0,1-.1.54c-.36,1.89,2.53,2.7,2.89.8Z"/><path class="cls-4" d="M98.49,288.67a253.3,253.3,0,0,1,6.8-26.59c5.75-18.93,13.1-37.54,23.07-54.67,10.42-17.9,24.34-35.24,43.52-44.15,22.62-10.51,47.48-4.83,68.43,6.89,16.73,9.37,31.5,22,45,35.49,19.33,19.27,36.42,40.75,52.32,62.89q7.29,10.14,14.25,20.5c1.08,1.59,3.68.09,2.59-1.52-16.74-24.79-34.59-49-54.75-71.12-14.18-15.56-29.6-30.32-47.09-42.13-21.15-14.28-47.33-24.64-72.91-17.15-20.57,6-36.35,21.95-48,39.29s-20.23,37.14-26.84,57.08q-3.65,11-6.51,22.32c-.92,3.61-2.49,7.77-2.65,11.52a5.35,5.35,0,0,1-.11.55c-.35,1.89,2.54,2.7,2.89.8Z"/><path class="cls-4" d="M98.49,290.4a253.3,253.3,0,0,1,6.8-26.59c5.75-18.93,13.1-37.54,23.07-54.67,10.42-17.9,24.34-35.24,43.52-44.15,22.62-10.51,47.48-4.84,68.43,6.89,16.73,9.37,31.5,22,45,35.49,19.33,19.27,36.42,40.75,52.32,62.89q7.29,10.14,14.25,20.5c1.08,1.59,3.68.09,2.59-1.52-16.74-24.79-34.59-49-54.75-71.12-14.18-15.56-29.6-30.32-47.09-42.13-21.15-14.28-47.33-24.64-72.91-17.15-20.57,6-36.35,21.95-48,39.29s-20.23,37.14-26.84,57.08q-3.65,11-6.51,22.32c-.92,3.61-2.49,7.77-2.65,11.52a5.35,5.35,0,0,1-.11.55c-.35,1.89,2.54,2.7,2.89.8Z"/><path class="cls-4" d="M98.49,292.13a253.3,253.3,0,0,1,6.8-26.59c5.75-18.93,13.1-37.54,23.07-54.67,10.42-17.9,24.34-35.24,43.52-44.15,22.62-10.51,47.48-4.84,68.43,6.89,16.73,9.37,31.5,22,45,35.49,19.33,19.27,36.42,40.74,52.32,62.89q7.29,10.14,14.25,20.5c1.08,1.59,3.68.09,2.59-1.52-16.74-24.79-34.59-49-54.75-71.12-14.18-15.56-29.6-30.32-47.09-42.13-21.15-14.28-47.33-24.64-72.91-17.15-20.57,6-36.35,22-48,39.29S111.48,237,104.87,256.94q-3.65,11-6.51,22.31c-.92,3.62-2.49,7.78-2.65,11.53a5.35,5.35,0,0,1-.11.55c-.35,1.89,2.54,2.7,2.89.8Z"/><path class="cls-4" d="M98.49,293.86a253.3,253.3,0,0,1,6.8-26.59c5.75-18.93,13.1-37.54,23.07-54.67,10.42-17.9,24.34-35.24,43.52-44.15,22.62-10.51,47.48-4.84,68.43,6.89,16.73,9.37,31.5,22,45,35.49,19.33,19.27,36.42,40.74,52.32,62.89q7.29,10.14,14.25,20.5c1.08,1.59,3.68.09,2.59-1.52-16.74-24.79-34.59-49-54.75-71.12-14.18-15.56-29.6-30.32-47.09-42.13-21.15-14.28-47.33-24.64-72.91-17.15-20.57,6-36.35,21.95-48,39.29s-20.23,37.14-26.84,57.08q-3.65,11-6.51,22.31c-.92,3.62-2.49,7.78-2.65,11.53a5.35,5.35,0,0,1-.11.55c-.35,1.89,2.54,2.7,2.89.8Z"/><path class="cls-5" d="M102,295.59a253.3,253.3,0,0,1,6.8-26.59c5.74-18.93,13.1-37.54,23.07-54.67,10.42-17.9,24.34-35.24,43.52-44.15,22.61-10.51,47.48-4.84,68.42,6.89,16.73,9.37,31.5,22,45,35.49,19.34,19.27,36.42,40.74,52.33,62.89,4.86,6.76,9.59,13.6,14.25,20.49,1.07,1.6,3.67.1,2.59-1.51-16.74-24.79-34.59-49-54.76-71.12-14.17-15.56-29.59-30.32-47.09-42.13C235,166.9,208.82,156.54,183.24,164c-20.57,6-36.35,21.95-48,39.29S115,240.46,108.36,260.4q-3.66,11-6.52,22.31c-.91,3.61-2.49,7.78-2.65,11.53a5.3,5.3,0,0,1-.1.55c-.36,1.89,2.53,2.69,2.89.8Z"/><path class="cls-5" d="M102,297.32a253.3,253.3,0,0,1,6.8-26.59c5.74-18.93,13.1-37.54,23.07-54.67,10.42-17.9,24.34-35.24,43.52-44.16,22.61-10.5,47.48-4.83,68.42,6.9,16.73,9.37,31.5,22,45,35.49,19.34,19.27,36.42,40.74,52.33,62.89,4.86,6.75,9.59,13.6,14.25,20.49,1.07,1.6,3.67.1,2.59-1.51-16.74-24.79-34.59-49-54.76-71.12-14.17-15.56-29.59-30.32-47.09-42.13-21.14-14.28-47.32-24.64-72.9-17.15-20.57,6-36.35,22-48,39.29S115,242.19,108.36,262.13q-3.66,11-6.52,22.31c-.91,3.61-2.49,7.78-2.65,11.53a5.3,5.3,0,0,1-.1.55c-.36,1.89,2.53,2.69,2.89.8Z"/><path class="cls-5" d="M102,299.05a253.3,253.3,0,0,1,6.8-26.59c5.74-18.93,13.1-37.54,23.07-54.67,10.42-17.9,24.34-35.24,43.52-44.16,22.61-10.51,47.48-4.83,68.42,6.9,16.73,9.36,31.5,22,45,35.49,19.34,19.27,36.42,40.74,52.33,62.89,4.86,6.75,9.59,13.6,14.25,20.49,1.07,1.6,3.67.1,2.59-1.51-16.74-24.79-34.59-49-54.76-71.12-14.17-15.56-29.59-30.32-47.09-42.13C235,170.36,208.82,160,183.24,167.49c-20.57,6-36.35,21.95-48,39.29S115,243.92,108.36,263.86q-3.66,11-6.52,22.31c-.91,3.61-2.49,7.78-2.65,11.53a5.3,5.3,0,0,1-.1.55c-.36,1.89,2.53,2.69,2.89.8Z"/><path class="cls-5" d="M102,300.78a253.3,253.3,0,0,1,6.8-26.59c5.74-18.93,13.1-37.54,23.07-54.67,10.42-17.9,24.34-35.24,43.52-44.16,22.61-10.51,47.48-4.83,68.42,6.9,16.73,9.36,31.5,22,45,35.48,19.34,19.28,36.42,40.75,52.33,62.89,4.86,6.76,9.59,13.61,14.25,20.5,1.07,1.59,3.67.1,2.59-1.51-16.74-24.79-34.59-49-54.76-71.12-14.17-15.56-29.59-30.32-47.09-42.13-21.14-14.28-47.32-24.64-72.9-17.15-20.57,6-36.35,21.95-48,39.29S115,245.65,108.36,265.59q-3.66,11-6.52,22.31c-.91,3.61-2.49,7.78-2.65,11.53a5.3,5.3,0,0,1-.1.55c-.36,1.88,2.53,2.69,2.89.8Z"/><path class="cls-3" d="M102,306a253.75,253.75,0,0,1,6.8-26.58c5.74-18.94,13.1-37.54,23.07-54.67,10.42-17.9,24.34-35.24,43.52-44.16,22.61-10.51,47.48-4.83,68.42,6.9,16.73,9.36,31.5,22,45,35.48,19.34,19.28,36.42,40.75,52.33,62.89,4.86,6.76,9.59,13.61,14.25,20.5,1.07,1.59,3.67.09,2.59-1.51-16.74-24.8-34.59-49-54.76-71.12-14.17-15.57-29.59-30.32-47.09-42.13-21.14-14.28-47.32-24.64-72.9-17.15-20.57,6-36.35,22-48,39.29S115,250.84,108.36,270.78q-3.66,11-6.52,22.31c-.91,3.61-2.49,7.78-2.65,11.53a5.3,5.3,0,0,1-.1.55c-.36,1.88,2.53,2.69,2.89.79Z"/><path class="cls-4" d="M101.26,306.59A250.81,250.81,0,0,1,108.05,280c5.75-18.93,13.1-37.54,23.07-54.67,10.43-17.9,24.35-35.24,43.53-44.16,22.61-10.51,47.47-4.83,68.42,6.9,16.73,9.36,31.5,22,45,35.49,19.33,19.27,36.42,40.74,52.33,62.89,4.85,6.75,9.59,13.6,14.25,20.49,1.07,1.6,3.67.1,2.59-1.51-16.75-24.79-34.6-49-54.76-71.12-14.18-15.56-29.59-30.32-47.09-42.13-21.15-14.28-47.33-24.64-72.91-17.15-20.56,6-36.35,21.95-48,39.29s-20.24,37.14-26.84,57.08q-3.66,11-6.52,22.31c-.92,3.61-2.49,7.78-2.65,11.53a3.57,3.57,0,0,1-.11.55c-.35,1.88,2.54,2.69,2.9.8Z"/><path class="cls-4" d="M101.26,308.32a250.81,250.81,0,0,1,6.79-26.59c5.75-18.93,13.1-37.54,23.07-54.67,10.43-17.9,24.35-35.24,43.53-44.16,22.61-10.51,47.47-4.83,68.42,6.9,16.73,9.36,31.5,22,45,35.48,19.33,19.28,36.42,40.75,52.33,62.89q7.27,10.14,14.25,20.5c1.07,1.59,3.67.1,2.59-1.51-16.75-24.79-34.6-49-54.76-71.12-14.18-15.56-29.59-30.32-47.09-42.13-21.15-14.28-47.33-24.64-72.91-17.15-20.56,6-36.35,22-48,39.29s-20.24,37.14-26.84,57.08q-3.66,11-6.52,22.31c-.92,3.61-2.49,7.78-2.65,11.53a3.57,3.57,0,0,1-.11.55c-.35,1.88,2.54,2.69,2.9.8Z"/><path class="cls-4" d="M101.26,310a251.25,251.25,0,0,1,6.79-26.58c5.75-18.94,13.1-37.54,23.07-54.67,10.43-17.9,24.35-35.24,43.53-44.16,22.61-10.51,47.47-4.83,68.42,6.9,16.73,9.36,31.5,22,45,35.48,19.33,19.28,36.42,40.75,52.33,62.89q7.27,10.14,14.25,20.5c1.07,1.59,3.67.09,2.59-1.51-16.75-24.8-34.6-49-54.76-71.12-14.18-15.56-29.59-30.32-47.09-42.13-21.15-14.28-47.33-24.64-72.91-17.15-20.56,6-36.35,21.95-48,39.29s-20.24,37.14-26.84,57.08q-3.66,11-6.52,22.31c-.92,3.61-2.49,7.78-2.65,11.53a3.57,3.57,0,0,1-.11.55c-.35,1.88,2.54,2.69,2.9.79Z"/><path class="cls-4" d="M101.26,311.77a251.25,251.25,0,0,1,6.79-26.58c5.75-18.94,13.1-37.54,23.07-54.67,10.43-17.9,24.35-35.24,43.53-44.16,22.61-10.51,47.47-4.83,68.42,6.9,16.73,9.36,31.5,22,45,35.48,19.33,19.28,36.42,40.75,52.33,62.89q7.27,10.14,14.25,20.5c1.07,1.59,3.67.09,2.59-1.51-16.75-24.8-34.6-49-54.76-71.12-14.18-15.57-29.59-30.32-47.09-42.13-21.15-14.28-47.33-24.64-72.91-17.15-20.56,6-36.35,21.95-48,39.29s-20.24,37.14-26.84,57.08q-3.66,11-6.52,22.31c-.92,3.61-2.49,7.78-2.65,11.53a3.57,3.57,0,0,1-.11.55c-.35,1.88,2.54,2.69,2.9.79Z"/><path class="cls-5" d="M104.74,313.5a253.75,253.75,0,0,1,6.8-26.58c5.75-18.94,13.1-37.54,23.07-54.67C145,214.35,159,197,178.13,188.09c22.61-10.51,47.48-4.83,68.42,6.9,16.74,9.36,31.5,22,45,35.48,19.33,19.28,36.41,40.75,52.32,62.89,4.86,6.76,9.59,13.61,14.25,20.5,1.08,1.59,3.68.09,2.59-1.51-16.74-24.8-34.59-49-54.76-71.12-14.17-15.57-29.59-30.32-47.08-42.13C237.76,184.82,211.58,174.46,186,182c-20.57,6-36.35,22-48,39.29s-20.23,37.14-26.84,57.08q-3.66,11-6.52,22.31c-.91,3.61-2.49,7.78-2.65,11.53a3.53,3.53,0,0,1-.1.55c-.36,1.88,2.53,2.69,2.89.79Z"/><path class="cls-5" d="M104.74,315.23a253.75,253.75,0,0,1,6.8-26.58c5.75-18.94,13.1-37.55,23.07-54.67C145,216.07,159,198.74,178.13,189.82c22.61-10.51,47.48-4.83,68.42,6.9,16.74,9.36,31.5,22,45,35.48C310.92,251.48,328,273,343.91,295.09c4.86,6.76,9.59,13.6,14.25,20.5,1.08,1.59,3.68.09,2.59-1.51C344,289.28,326.16,265.1,306,243c-14.17-15.57-29.59-30.32-47.08-42.13-21.15-14.28-47.33-24.64-72.91-17.16-20.57,6-36.35,22-48,39.3s-20.23,37.13-26.84,57.08q-3.66,11-6.52,22.31c-.91,3.61-2.49,7.78-2.65,11.53a3.53,3.53,0,0,1-.1.55c-.36,1.88,2.53,2.69,2.89.79Z"/><path class="cls-5" d="M104.74,317a254.57,254.57,0,0,1,6.8-26.59c5.75-18.93,13.1-37.54,23.07-54.66C145,217.8,159,200.47,178.13,191.55c22.61-10.51,47.48-4.83,68.42,6.89,16.74,9.37,31.5,22,45,35.49,19.33,19.27,36.41,40.75,52.32,62.89,4.86,6.76,9.59,13.6,14.25,20.5,1.08,1.59,3.68.09,2.59-1.51C344,291,326.16,266.83,306,244.69c-14.17-15.57-29.59-30.33-47.08-42.14-21.15-14.27-47.33-24.63-72.91-17.15-20.57,6-36.35,22-48,39.3s-20.23,37.13-26.84,57.08q-3.66,11-6.52,22.31c-.91,3.61-2.49,7.78-2.65,11.53a3.53,3.53,0,0,1-.1.55c-.36,1.88,2.53,2.69,2.89.79Z"/><path class="cls-5" d="M104.74,318.69a253.93,253.93,0,0,1,6.8-26.59c5.75-18.93,13.1-37.54,23.07-54.66C145,219.53,159,202.2,178.13,193.28c22.61-10.51,47.48-4.83,68.42,6.89,16.74,9.37,31.5,22,45,35.49,19.33,19.27,36.41,40.75,52.32,62.89,4.86,6.76,9.59,13.6,14.25,20.5,1.08,1.59,3.68.09,2.59-1.51-16.74-24.8-34.59-49-54.76-71.12-14.17-15.57-29.59-30.33-47.08-42.14C237.76,190,211.58,179.65,186,187.13c-20.57,6-36.35,22-48,39.3s-20.23,37.13-26.84,57.08q-3.66,11-6.52,22.31c-.91,3.61-2.49,7.78-2.65,11.53a3.22,3.22,0,0,1-.1.54c-.36,1.89,2.53,2.7,2.89.8Z"/><path class="cls-3" d="M104.74,323.88a253.3,253.3,0,0,1,6.8-26.59c5.75-18.93,13.1-37.54,23.07-54.66C145,224.72,159,207.39,178.13,198.47c22.61-10.51,47.48-4.83,68.42,6.89,16.74,9.37,31.5,22,45,35.49,19.33,19.27,36.41,40.75,52.32,62.89,4.86,6.76,9.59,13.6,14.25,20.5,1.08,1.59,3.68.09,2.59-1.52-16.74-24.79-34.59-49-54.76-71.11-14.17-15.57-29.59-30.33-47.08-42.14-21.15-14.27-47.33-24.63-72.91-17.15-20.57,6-36.35,22-48,39.29s-20.23,37.14-26.84,57.09q-3.66,11-6.52,22.31c-.91,3.61-2.49,7.77-2.65,11.53a3.41,3.41,0,0,1-.1.54c-.36,1.89,2.53,2.7,2.89.8Z"/><path class="cls-7" d="M127.39,177l-17.11-14.55s-23.82-12.92-63.63-9.18c0,0-5.37-.89,11.24,13.23l78.52,66.76s18.75,13.19,61.91,8.62c0,0,4.86.54-2-6.26C190,229.28,127.39,177,127.39,177Z"/><path class="cls-8" d="M52.54,155.87s43.73-2.22,53.34,9.76C105.88,165.63,55.72,169.62,52.54,155.87Z"/><path class="cls-9" d="M105,165.69s-39.6-7.56-48.69-5.09c0,0,2,2.39,10.6,4C74.48,166,87.48,166.78,105,165.69Z"/><path class="cls-10" d="M62.44,168s7.8,1.13,8.52.82,79.48,70.21,80.91,70.56S139.7,235.91,137.6,234,62.44,168,62.44,168Z"/><path class="cls-10" d="M76.69,170.3s8,1.1,8.67.78,85.28,71.07,86.74,71.43-11.72-1.29-15.16-2.38C154.68,238.14,76.69,170.3,76.69,170.3Z"/><path class="cls-11" d="M91.28,170.44s8.8.73,9.63.35,85.75,71.51,87.35,71.8-12.54.76-14.79-1.25S91.28,170.44,91.28,170.44Z"/><path class="cls-11" d="M105.65,169.93l5.7-2.49s.84-2.95-.31-4.39,87.66,72,88.87,78.18Z"/><path class="cls-7" d="M152.41,174.46l-14.34-17.29s-21.23-16.84-61.08-20c0,0-5.14-1.81,8.78,15l65.8,79.32s16.18,16.23,59.48,19.2c0,0,4.7,1.37-.85-6.51C205.05,236.82,152.41,174.46,152.41,174.46Z"/><path class="cls-8" d="M82.34,140.75s43.45,5.38,50.84,18.84C133.18,159.59,83.08,154.85,82.34,140.75Z"/><path class="cls-9" d="M132.28,159.49S94.58,145.2,85.2,146.06c0,0,1.57,2.7,9.74,5.77C102.18,154.55,114.86,157.54,132.28,159.49Z"/><path class="cls-10" d="M90,154.45s7.49,2.46,8.25,2.28,66.14,82.89,67.49,83.49-11.38-5.57-13.1-7.86S90,154.45,90,154.45Z"/><path class="cls-10" d="M103.62,159.14s7.66,2.46,8.41,2.27,71.7,84.74,73.09,85.34-11.33-3.29-14.53-5C168.72,239.45,103.62,159.14,103.62,159.14Z"/><path class="cls-11" d="M118,161.8s8.54,2.24,9.43,2,72.09,85.25,73.61,85.82-12.47-1.42-14.35-3.79S118,161.8,118,161.8Z"/><path class="cls-11" d="M132.21,163.78l6-1.46s1.33-2.77.45-4.39,73.9,86.07,74,92.37Z"/><path class="cls-8" d="M198.12,192.49s-9.43,4.78-18.74-3.68c-2.32-5.83-3.28-6.23-5-9.28s-7.81-12.16-2.86-23.46c8-10.45,18.21-22.74,22.87-25.93s16-7.2,22.25-10.55,13.27-8.7,15.06-7.58,9.58,7.79,13.38,26.15,3.09,24.72,1.68,27.28-3.88,13.29-4,16.36-3.5,17-14.31,19.63-15.51.36-17.63-.88-7.26-3.34-8.28-4.53S202.3,192.81,198.12,192.49Z"/><path class="cls-7" d="M200.93,190.31s-9.31,4.48-18.7-3.83c-2.4-5.66-3.36-6-5.16-9s-7.95-11.84-3.19-22.67c7.79-10,17.79-21.67,22.38-24.69s15.85-6.7,22-9.84,13.07-8.21,14.87-7.1,9.65,7.66,13.71,25.43,3.44,23.9,2.07,26.35-3.67,12.76-3.75,15.73-3.23,16.32-14,18.73-15.43.12-17.55-1.11-7.28-3.33-8.31-4.5S205.1,190.68,200.93,190.31Z"/><path class="cls-9" d="M183.37,147.56s12-13.89,17.25-16.64,17.56-7.7,19.5-8.79,8.35-4.87,9.58-5.12,2.45-.51,2.83,2.27,6.28,10.42,8.25,17.6,8.52,42.83-7.73,54.25c-10.8,3.5-6.35,4.56-21.24-.35,0,0,8.09-4.23,6.75-7.4s-8.93,3.52-11.31,2.92-14.39-2.45-19.29-17.19c-1.53-5.49-1.19-9.11,3.78-9.34a63.53,63.53,0,0,1,11.23,0c2.84.4,13.67,3.29,15.65,8.59A17.18,17.18,0,0,0,226,177c1.48,1,3.33,4.72-1.12,5.54s-7.06,5.39-5.52,7.14,9.91,7,16.74-5.21S243.22,154,229,143.73s-37-2.23-40.61,1.18S181.13,149.84,183.37,147.56Z"/><path class="cls-12" d="M196.87,160.53a25.38,25.38,0,0,0,14,10.91c9.93,3.27,14.7,4.46,13.53,5.48s-12.47,4-14.36,5.81-15.15-2.39-17.07-6.92,2.23-9.22,2.06-13.41S196.49,159.63,196.87,160.53Z"/><path class="cls-13" d="M196.48,161.5a25.42,25.42,0,0,0,14,10.91c9.93,3.27,14.7,4.45,13.53,5.48s-12.48,4-14.36,5.81-15.16-2.39-17.07-6.92,2.23-9.22,2.06-13.42S196.1,160.59,196.48,161.5Z"/><path class="cls-14" d="M200.64,168.06a17.53,17.53,0,0,0,9.62,7.52c6.83,2.25,10.12,3.07,9.32,3.77s-8.6,2.72-9.89,4-10.44-1.65-11.76-4.77,1.54-6.35,1.42-9.24S200.38,167.44,200.64,168.06Z"/><path class="cls-15" d="M189.75,149.4s22.07-12.81,33.59-3.27-13.76,1.55-18.67,2.56"/><path class="cls-7" d="M206,187.6l-12.56-19.52s-19.71-19.94-60.3-28.29c0,0-5-2.51,7.14,16.44l57.62,89.55s14.59,18.67,58.76,27.23c0,0,4.65,2-.06-6.77C252.22,258.11,206,187.6,206,187.6Z"/><path class="cls-8" d="M138.17,144.17s44,11,49.92,25.76C188.09,169.93,137.15,158.68,138.17,144.17Z"/><path class="cls-9" d="M187.17,169.71s-37-19.43-46.73-19.75c0,0,1.28,3,9.3,7.15C156.84,160.81,169.51,165.49,187.17,169.71Z"/><path class="cls-10" d="M144.3,159.16s7.39,3.47,8.19,3.38,57.53,93.25,58.84,94-11-7.14-12.48-9.71S144.3,159.16,144.3,159.16Z"/><path class="cls-10" d="M157.74,165.7s7.57,3.5,8.36,3.39,63,95.85,64.36,96.64-11.23-4.81-14.31-6.93C214.51,256.16,157.74,165.7,157.74,165.7Z"/><path class="cls-11" d="M172.16,170.25s8.5,3.38,9.44,3.25,63.35,96.43,64.84,97.2-12.65-3.05-14.28-5.7S172.16,170.25,172.16,170.25Z"/><path class="cls-11" d="M186.56,174.09l6.4-.73s1.73-2.65,1-4.42,65.11,97.48,64.42,104Z"/><polygon class="cls-16" points="223.29 429.19 108.62 420.23 81.74 192.69 210.75 192.69 223.29 429.19"/><polygon class="cls-17" points="83.53 192.69 216.12 192.69 182.08 267.94 124.74 303.77 67.41 303.77 47.7 266.15 83.53 192.69"/><polyline class="cls-17" points="418.58 192.69 391.71 418.44 223.29 429.19 210.75 192.69 418.58 192.69"/><polygon class="cls-18" points="210.75 192.69 250.16 117.44 305.7 79.81 418.58 79.81 458 117.44 418.58 192.69 210.75 192.69"/><polygon class="cls-17" points="418.58 192.69 302.12 341.4 223.29 429.19 391.71 418.44 418.58 192.69"/></svg>
